<svg xmlns="http://www.w3.org/2000/svg" width="1268.12" height="215.20" viewBox="-74.00 -155.40 1268.12 215.20"><path d="M -12.00 -139.40 Q -36.00 -139.40 -36.00 -115.40 L -36.00 -66.80 Q -36.00 -54.05 -58.00 -51.80 Q -36.00 -49.55 -36.00 -36.80 L -36.00 11.80 Q -36.00 35.80 -12.00 35.80" stroke="#3A1E6E" stroke-width="16" stroke-linecap="round" stroke-linejoin="round" fill="none"/><path d="M 218.31 -139.40 Q 242.31 -139.40 242.31 -115.40 L 242.31 -66.80 Q 242.31 -54.05 264.31 -51.80 Q 242.31 -49.55 242.31 -36.80 L 242.31 11.80 Q 242.31 35.80 218.31 35.80" stroke="#3A1E6E" stroke-width="16" stroke-linecap="round" stroke-linejoin="round" fill="none"/><path transform="translate(0,0)" d="M42.476 -83.324Q50.467999999999996 -83.324 57.72 -79.846Q64.972 -76.368 69.264 -70.59599999999999V-109.52H90.28V0.0H69.264V-12.136Q65.416 -6.068 58.459999999999994 -2.368Q51.504 1.3319999999999999 42.327999999999996 1.3319999999999999Q31.968 1.3319999999999999 23.384 -3.996Q14.799999999999999 -9.324 9.841999999999999 -19.018Q4.8839999999999995 -28.712 4.8839999999999995 -41.291999999999994Q4.8839999999999995 -53.724 9.841999999999999 -63.343999999999994Q14.799999999999999 -72.964 23.384 -78.144Q31.968 -83.324 42.476 -83.324ZM47.656 -65.11999999999999Q41.884 -65.11999999999999 37.0 -62.30799999999999Q32.116 -59.495999999999995 29.082 -54.093999999999994Q26.048 -48.692 26.048 -41.291999999999994Q26.048 -33.891999999999996 29.082 -28.342Q32.116 -22.791999999999998 37.074 -19.832Q42.032 -16.872 47.656 -16.872Q53.428 -16.872 58.459999999999994 -19.758Q63.492 -22.644 66.452 -28.046Q69.41199999999999 -33.448 69.41199999999999 -40.995999999999995Q69.41199999999999 -48.544 66.452 -53.946Q63.492 -59.348 58.459999999999994 -62.233999999999995Q53.428 -65.11999999999999 47.656 -65.11999999999999ZM173.89999999999998 -19.683999999999997H132.756L125.948 0.0H104.192L141.33999999999997 -103.452H165.464L202.612 0.0H180.70799999999997ZM168.276 -36.26 153.32799999999997 -79.476 138.38 -36.26Z" fill="#3A1E6E"/><rect x="304.91" y="-114.38" width="2.8" height="123.82" rx="1.4" fill="rgba(58,30,110,0.28)"/><path d="M364.142 -78.20599999999999Q369.002 -78.20599999999999 373.41200000000003 -76.09099999999998Q377.822 -73.97599999999998 380.432 -70.466V-94.13599999999998H393.212V-27.53599999999999H380.432V-34.91599999999999Q378.092 -31.225999999999992 373.86199999999997 -28.975999999999992Q369.632 -26.725999999999992 364.052 -26.725999999999992Q357.752 -26.725999999999992 352.53200000000004 -29.96599999999999Q347.312 -33.20599999999999 344.297 -39.10099999999999Q341.28200000000004 -44.995999999999995 341.28200000000004 -52.64599999999999Q341.28200000000004 -60.20599999999999 344.297 -66.05599999999998Q347.312 -71.90599999999999 352.53200000000004 -75.05599999999998Q357.752 -78.20599999999999 364.142 -78.20599999999999ZM367.29200000000003 -67.136Q363.78200000000004 -67.136 360.812 -65.42599999999999Q357.842 -63.715999999999994 355.99699999999996 -60.43099999999999Q354.152 -57.14599999999999 354.152 -52.64599999999999Q354.152 -48.14599999999999 355.99699999999996 -44.77099999999999Q357.842 -41.39599999999999 360.85699999999997 -39.59599999999999Q363.872 -37.79599999999999 367.29200000000003 -37.79599999999999Q370.802 -37.79599999999999 373.862 -39.55099999999999Q376.922 -41.30599999999999 378.722 -44.590999999999994Q380.522 -47.87599999999999 380.522 -52.465999999999994Q380.522 -57.05599999999999 378.722 -60.340999999999994Q376.922 -63.62599999999999 373.862 -65.381Q370.802 -67.136 367.29200000000003 -67.136ZM451.832 -48.68599999999999H415.382Q415.832 -43.28599999999999 419.16200000000003 -40.225999999999985Q422.492 -37.16599999999999 427.352 -37.16599999999999Q434.372 -37.16599999999999 437.342 -43.19599999999999H450.932Q448.772 -35.99599999999999 442.652 -31.36099999999999Q436.532 -26.725999999999992 427.622 -26.725999999999992Q420.422 -26.725999999999992 414.707 -29.920999999999992Q408.992 -33.11599999999999 405.797 -38.965999999999994Q402.60200000000003 -44.81599999999999 402.60200000000003 -52.465999999999994Q402.60200000000003 -60.20599999999999 405.752 -66.05599999999998Q408.902 -71.90599999999999 414.572 -75.05599999999998Q420.242 -78.20599999999999 427.622 -78.20599999999999Q434.732 -78.20599999999999 440.357 -75.14599999999999Q445.982 -72.08599999999998 449.087 -66.46099999999998Q452.192 -60.835999999999984 452.192 -53.54599999999999Q452.192 -50.84599999999999 451.832 -48.68599999999999ZM439.142 -57.14599999999999Q439.052 -62.005999999999986 435.632 -64.93099999999998Q432.212 -67.856 427.262 -67.856Q422.582 -67.856 419.387 -65.02099999999999Q416.192 -62.18599999999999 415.472 -57.14599999999999ZM483.092 -78.20599999999999Q492.36199999999997 -78.20599999999999 498.437 -73.571Q504.512 -68.93599999999999 506.582 -60.56599999999999H492.99199999999996Q491.912 -63.80599999999998 489.347 -65.65099999999998Q486.782 -67.496 483.002 -67.496Q477.602 -67.496 474.452 -63.58099999999999Q471.30199999999996 -59.66599999999998 471.30199999999996 -52.465999999999994Q471.30199999999996 -45.355999999999995 474.452 -41.44099999999999Q477.602 -37.52599999999999 483.002 -37.52599999999999Q490.652 -37.52599999999999 492.99199999999996 -44.365999999999985H506.582Q504.512 -36.26599999999999 498.392 -31.49599999999999Q492.272 -26.725999999999992 483.092 -26.725999999999992Q475.892 -26.725999999999992 470.312 -29.920999999999992Q464.73199999999997 -33.11599999999999 461.582 -38.92099999999999Q458.432 -44.725999999999985 458.432 -52.465999999999994Q458.432 -60.20599999999999 461.582 -66.011Q464.73199999999997 -71.81599999999999 470.312 -75.011Q475.892 -78.20599999999999 483.092 -78.20599999999999ZM513.002 -52.465999999999994Q513.002 -60.115999999999985 516.377 -65.96599999999998Q519.752 -71.81599999999999 525.602 -75.011Q531.452 -78.20599999999999 538.652 -78.20599999999999Q545.852 -78.20599999999999 551.702 -75.011Q557.552 -71.81599999999999 560.927 -65.96599999999998Q564.302 -60.115999999999985 564.302 -52.465999999999994Q564.302 -44.81599999999999 560.837 -38.965999999999994Q557.372 -33.11599999999999 551.477 -29.920999999999992Q545.582 -26.725999999999992 538.292 -26.725999999999992Q531.092 -26.725999999999992 525.332 -29.920999999999992Q519.572 -33.11599999999999 516.287 -38.965999999999994Q513.002 -44.81599999999999 513.002 -52.465999999999994ZM551.342 -52.465999999999994Q551.342 -59.57599999999999 547.607 -63.40099999999999Q543.872 -67.22599999999998 538.472 -67.22599999999998Q533.072 -67.22599999999998 529.427 -63.40099999999999Q525.782 -59.57599999999999 525.782 -52.465999999999994Q525.782 -45.355999999999995 529.337 -41.53099999999999Q532.892 -37.70599999999999 538.292 -37.70599999999999Q541.712 -37.70599999999999 544.727 -39.37099999999999Q547.742 -41.03599999999999 549.5419999999999 -44.365999999999985Q551.342 -47.69599999999999 551.342 -52.465999999999994ZM656.222 -56.78599999999999V-27.53599999999999H643.6220000000001V-55.07599999999999Q643.6220000000001 -60.92599999999999 640.652 -64.03099999999999Q637.682 -67.136 632.552 -67.136Q627.422 -67.136 624.407 -64.03099999999999Q621.392 -60.92599999999999 621.392 -55.07599999999999V-27.53599999999999H608.792V-55.07599999999999Q608.792 -60.92599999999999 605.8220000000001 -64.03099999999999Q602.8520000000001 -67.136 597.722 -67.136Q592.5020000000001 -67.136 589.4870000000001 -64.03099999999999Q586.472 -60.92599999999999 586.472 -55.07599999999999V-27.53599999999999H573.8720000000001V-77.39599999999999H586.472V-71.36599999999999Q588.902 -74.51599999999999 592.7270000000001 -76.31599999999999Q596.552 -78.11599999999999 601.142 -78.11599999999999Q606.9920000000001 -78.11599999999999 611.5820000000001 -75.64099999999999Q616.172 -73.16599999999998 618.692 -68.576Q621.1220000000001 -72.89599999999999 625.7570000000001 -75.50599999999999Q630.392 -78.11599999999999 635.792 -78.11599999999999Q644.972 -78.11599999999999 650.597 -72.49099999999999Q656.222 -66.86599999999999 656.222 -56.78599999999999ZM697.562 -78.20599999999999Q703.952 -78.20599999999999 709.127 -75.05599999999998Q714.302 -71.90599999999999 717.317 -66.101Q720.332 -60.29599999999999 720.332 -52.64599999999999Q720.332 -44.995999999999995 717.317 -39.10099999999999Q714.302 -33.20599999999999 709.127 -29.96599999999999Q703.952 -26.725999999999992 697.562 -26.725999999999992Q692.072 -26.725999999999992 687.887 -28.975999999999992Q683.702 -31.225999999999992 681.092 -34.64599999999999V-3.7759999999999927H668.4920000000001V-77.39599999999999H681.092V-70.19599999999998Q683.522 -73.61599999999999 687.797 -75.91099999999999Q692.072 -78.20599999999999 697.562 -78.20599999999999ZM694.2320000000001 -67.136Q690.812 -67.136 687.797 -65.381Q684.782 -63.62599999999999 682.937 -60.29599999999999Q681.092 -56.965999999999994 681.092 -52.465999999999994Q681.092 -47.965999999999994 682.937 -44.635999999999996Q684.782 -41.30599999999999 687.797 -39.55099999999999Q690.812 -37.79599999999999 694.2320000000001 -37.79599999999999Q697.7420000000001 -37.79599999999999 700.7570000000001 -39.59599999999999Q703.772 -41.39599999999999 705.617 -44.725999999999985Q707.462 -48.05599999999999 707.462 -52.64599999999999Q707.462 -57.14599999999999 705.617 -60.43099999999999Q703.772 -63.715999999999994 700.7570000000001 -65.42599999999999Q697.7420000000001 -67.136 694.2320000000001 -67.136ZM771.0620000000001 -78.20599999999999Q776.6420000000002 -78.20599999999999 780.8270000000002 -75.95599999999999Q785.0120000000002 -73.70599999999999 787.5320000000002 -70.28599999999999V-77.39599999999999H800.2220000000001V-27.53599999999999H787.5320000000002V-34.82599999999999Q785.1020000000001 -31.315999999999992 780.8270000000001 -29.020999999999994Q776.5520000000001 -26.725999999999992 770.9720000000001 -26.725999999999992Q764.6720000000001 -26.725999999999992 759.4970000000001 -29.96599999999999Q754.3220000000001 -33.20599999999999 751.3070000000001 -39.10099999999999Q748.2920000000001 -44.995999999999995 748.2920000000001 -52.64599999999999Q748.2920000000001 -60.20599999999999 751.3070000000001 -66.05599999999998Q754.3220000000001 -71.90599999999999 759.4970000000001 -75.05599999999998Q764.6720000000001 -78.20599999999999 771.0620000000001 -78.20599999999999ZM774.3020000000001 -67.136Q770.7920000000001 -67.136 767.8220000000001 -65.42599999999999Q764.8520000000001 -63.715999999999994 763.0070000000001 -60.43099999999999Q761.1620000000001 -57.14599999999999 761.1620000000001 -52.64599999999999Q761.1620000000001 -48.14599999999999 763.0070000000001 -44.77099999999999Q764.8520000000001 -41.39599999999999 767.8670000000001 -39.59599999999999Q770.8820000000001 -37.79599999999999 774.3020000000001 -37.79599999999999Q777.8120000000001 -37.79599999999999 780.8720000000001 -39.55099999999999Q783.9320000000001 -41.30599999999999 785.7320000000002 -44.590999999999994Q787.5320000000002 -47.87599999999999 787.5320000000002 -52.465999999999994Q787.5320000000002 -57.05599999999999 785.7320000000002 -60.340999999999994Q783.9320000000001 -63.62599999999999 780.8720000000001 -65.381Q777.8120000000001 -67.136 774.3020000000001 -67.136ZM834.272 -78.20599999999999Q843.542 -78.20599999999999 849.617 -73.571Q855.692 -68.93599999999999 857.7620000000001 -60.56599999999999H844.172Q843.0920000000001 -63.80599999999998 840.527 -65.65099999999998Q837.9620000000001 -67.496 834.182 -67.496Q828.782 -67.496 825.6320000000001 -63.58099999999999Q822.4820000000001 -59.66599999999998 822.4820000000001 -52.465999999999994Q822.4820000000001 -45.355999999999995 825.6320000000001 -41.44099999999999Q828.782 -37.52599999999999 834.182 -37.52599999999999Q841.8320000000001 -37.52599999999999 844.172 -44.365999999999985H857.7620000000001Q855.692 -36.26599999999999 849.572 -31.49599999999999Q843.452 -26.725999999999992 834.272 -26.725999999999992Q827.072 -26.725999999999992 821.492 -29.920999999999992Q815.912 -33.11599999999999 812.7620000000001 -38.92099999999999Q809.6120000000001 -44.725999999999985 809.6120000000001 -52.465999999999994Q809.6120000000001 -60.20599999999999 812.7620000000001 -66.011Q815.912 -71.81599999999999 821.492 -75.011Q827.072 -78.20599999999999 834.272 -78.20599999999999ZM886.8620000000001 -78.20599999999999Q892.4420000000001 -78.20599999999999 896.6270000000002 -75.95599999999999Q900.8120000000001 -73.70599999999999 903.3320000000001 -70.28599999999999V-77.39599999999999H916.022V-27.53599999999999H903.3320000000001V-34.82599999999999Q900.902 -31.315999999999992 896.6270000000001 -29.020999999999994Q892.3520000000001 -26.725999999999992 886.772 -26.725999999999992Q880.4720000000001 -26.725999999999992 875.297 -29.96599999999999Q870.1220000000001 -33.20599999999999 867.1070000000001 -39.10099999999999Q864.0920000000001 -44.995999999999995 864.0920000000001 -52.64599999999999Q864.0920000000001 -60.20599999999999 867.1070000000001 -66.05599999999998Q870.1220000000001 -71.90599999999999 875.297 -75.05599999999998Q880.4720000000001 -78.20599999999999 886.8620000000001 -78.20599999999999ZM890.1020000000001 -67.136Q886.5920000000001 -67.136 883.6220000000001 -65.42599999999999Q880.652 -63.715999999999994 878.807 -60.43099999999999Q876.9620000000001 -57.14599999999999 876.9620000000001 -52.64599999999999Q876.9620000000001 -48.14599999999999 878.807 -44.77099999999999Q880.652 -41.39599999999999 883.667 -39.59599999999999Q886.682 -37.79599999999999 890.1020000000001 -37.79599999999999Q893.6120000000001 -37.79599999999999 896.672 -39.55099999999999Q899.7320000000001 -41.30599999999999 901.5320000000002 -44.590999999999994Q903.3320000000001 -47.87599999999999 903.3320000000001 -52.465999999999994Q903.3320000000001 -57.05599999999999 901.5320000000002 -60.340999999999994Q899.7320000000001 -63.62599999999999 896.672 -65.381Q893.6120000000001 -67.136 890.1020000000001 -67.136ZM948.272 -78.20599999999999Q953.1320000000001 -78.20599999999999 957.542 -76.09099999999998Q961.952 -73.97599999999998 964.562 -70.466V-94.13599999999998H977.342V-27.53599999999999H964.562V-34.91599999999999Q962.222 -31.225999999999992 957.992 -28.975999999999992Q953.7620000000001 -26.725999999999992 948.182 -26.725999999999992Q941.8820000000001 -26.725999999999992 936.662 -29.96599999999999Q931.442 -33.20599999999999 928.427 -39.10099999999999Q925.412 -44.995999999999995 925.412 -52.64599999999999Q925.412 -60.20599999999999 928.427 -66.05599999999998Q931.442 -71.90599999999999 936.662 -75.05599999999998Q941.8820000000001 -78.20599999999999 948.272 -78.20599999999999ZM951.422 -67.136Q947.912 -67.136 944.942 -65.42599999999999Q941.972 -63.715999999999994 940.127 -60.43099999999999Q938.282 -57.14599999999999 938.282 -52.64599999999999Q938.282 -48.14599999999999 940.127 -44.77099999999999Q941.972 -41.39599999999999 944.987 -39.59599999999999Q948.002 -37.79599999999999 951.422 -37.79599999999999Q954.932 -37.79599999999999 957.992 -39.55099999999999Q961.052 -41.30599999999999 962.8520000000001 -44.590999999999994Q964.652 -47.87599999999999 964.652 -52.465999999999994Q964.652 -57.05599999999999 962.8520000000001 -60.340999999999994Q961.052 -63.62599999999999 957.992 -65.381Q954.932 -67.136 951.422 -67.136ZM1035.962 -48.68599999999999H999.512Q999.962 -43.28599999999999 1003.2919999999999 -40.225999999999985Q1006.622 -37.16599999999999 1011.482 -37.16599999999999Q1018.502 -37.16599999999999 1021.472 -43.19599999999999H1035.062Q1032.902 -35.99599999999999 1026.782 -31.36099999999999Q1020.6619999999999 -26.725999999999992 1011.752 -26.725999999999992Q1004.5519999999999 -26.725999999999992 998.837 -29.920999999999992Q993.122 -33.11599999999999 989.9269999999999 -38.965999999999994Q986.732 -44.81599999999999 986.732 -52.465999999999994Q986.732 -60.20599999999999 989.882 -66.05599999999998Q993.0319999999999 -71.90599999999999 998.702 -75.05599999999998Q1004.372 -78.20599999999999 1011.752 -78.20599999999999Q1018.862 -78.20599999999999 1024.4869999999999 -75.14599999999999Q1030.1119999999999 -72.08599999999998 1033.2169999999999 -66.46099999999998Q1036.322 -60.835999999999984 1036.322 -53.54599999999999Q1036.322 -50.84599999999999 1035.962 -48.68599999999999ZM1023.2719999999999 -57.14599999999999Q1023.1819999999999 -62.005999999999986 1019.762 -64.93099999999998Q1016.342 -67.856 1011.3919999999999 -67.856Q1006.712 -67.856 1003.5169999999999 -65.02099999999999Q1000.3219999999999 -62.18599999999999 999.602 -57.14599999999999ZM1128.1519999999998 -56.78599999999999V-27.53599999999999H1115.552V-55.07599999999999Q1115.552 -60.92599999999999 1112.5819999999999 -64.03099999999999Q1109.6119999999999 -67.136 1104.482 -67.136Q1099.3519999999999 -67.136 1096.337 -64.03099999999999Q1093.322 -60.92599999999999 1093.322 -55.07599999999999V-27.53599999999999H1080.7219999999998V-55.07599999999999Q1080.7219999999998 -60.92599999999999 1077.752 -64.03099999999999Q1074.782 -67.136 1069.6519999999998 -67.136Q1064.4319999999998 -67.136 1061.417 -64.03099999999999Q1058.4019999999998 -60.92599999999999 1058.4019999999998 -55.07599999999999V-27.53599999999999H1045.802V-77.39599999999999H1058.4019999999998V-71.36599999999999Q1060.8319999999999 -74.51599999999999 1064.657 -76.31599999999999Q1068.482 -78.11599999999999 1073.072 -78.11599999999999Q1078.9219999999998 -78.11599999999999 1083.5119999999997 -75.64099999999999Q1088.1019999999999 -73.16599999999998 1090.6219999999998 -68.576Q1093.052 -72.89599999999999 1097.687 -75.50599999999999Q1102.322 -78.11599999999999 1107.7219999999998 -78.11599999999999Q1116.9019999999998 -78.11599999999999 1122.5269999999998 -72.49099999999999Q1128.1519999999998 -66.86599999999999 1128.1519999999998 -56.78599999999999ZM1188.1219999999998 -77.39599999999999 1157.2519999999997 -3.9559999999999924H1143.8419999999999L1154.6419999999998 -28.795999999999992L1134.6619999999998 -77.39599999999999H1148.7919999999997L1161.6619999999998 -42.56599999999999L1174.7119999999998 -77.39599999999999Z" fill="#3A1E6E"/></svg>