<svg xmlns="http://www.w3.org/2000/svg" width="1200" height="630" viewBox="0 0 1200 630"><defs><linearGradient id="ogbg" x1="0" y1="0" x2="0.6" y2="1"><stop offset="0" stop-color="#241544"/><stop offset="1" stop-color="#16101F"/></linearGradient></defs><rect width="1200" height="630" fill="url(#ogbg)"/><svg x="228.0" y="223.9" width="744.0" height="126.3" viewBox="-74.00 -155.40 1268.12 215.20" overflow="visible"><path d="M -12.00 -139.40 Q -36.00 -139.40 -36.00 -115.40 L -36.00 -66.80 Q -36.00 -54.05 -58.00 -51.80 Q -36.00 -49.55 -36.00 -36.80 L -36.00 11.80 Q -36.00 35.80 -12.00 35.80" transform="translate(6,8)" stroke="#A78BFA" stroke-width="16" stroke-linecap="round" stroke-linejoin="round" fill="none"/><path d="M -12.00 -139.40 Q -36.00 -139.40 -36.00 -115.40 L -36.00 -66.80 Q -36.00 -54.05 -58.00 -51.80 Q -36.00 -49.55 -36.00 -36.80 L -36.00 11.80 Q -36.00 35.80 -12.00 35.80" stroke="#FFFFFF" stroke-width="16" stroke-linecap="round" stroke-linejoin="round" fill="none"/><path d="M 218.31 -139.40 Q 242.31 -139.40 242.31 -115.40 L 242.31 -66.80 Q 242.31 -54.05 264.31 -51.80 Q 242.31 -49.55 242.31 -36.80 L 242.31 11.80 Q 242.31 35.80 218.31 35.80" transform="translate(-6,8)" stroke="#A78BFA" stroke-width="16" stroke-linecap="round" stroke-linejoin="round" fill="none"/><path d="M 218.31 -139.40 Q 242.31 -139.40 242.31 -115.40 L 242.31 -66.80 Q 242.31 -54.05 264.31 -51.80 Q 242.31 -49.55 242.31 -36.80 L 242.31 11.80 Q 242.31 35.80 218.31 35.80" stroke="#FFFFFF" stroke-width="16" stroke-linecap="round" stroke-linejoin="round" fill="none"/><path transform="translate(0,0)" d="M42.476 -83.324Q50.467999999999996 -83.324 57.72 -79.846Q64.972 -76.368 69.264 -70.59599999999999V-109.52H90.28V0.0H69.264V-12.136Q65.416 -6.068 58.459999999999994 -2.368Q51.504 1.3319999999999999 42.327999999999996 1.3319999999999999Q31.968 1.3319999999999999 23.384 -3.996Q14.799999999999999 -9.324 9.841999999999999 -19.018Q4.8839999999999995 -28.712 4.8839999999999995 -41.291999999999994Q4.8839999999999995 -53.724 9.841999999999999 -63.343999999999994Q14.799999999999999 -72.964 23.384 -78.144Q31.968 -83.324 42.476 -83.324ZM47.656 -65.11999999999999Q41.884 -65.11999999999999 37.0 -62.30799999999999Q32.116 -59.495999999999995 29.082 -54.093999999999994Q26.048 -48.692 26.048 -41.291999999999994Q26.048 -33.891999999999996 29.082 -28.342Q32.116 -22.791999999999998 37.074 -19.832Q42.032 -16.872 47.656 -16.872Q53.428 -16.872 58.459999999999994 -19.758Q63.492 -22.644 66.452 -28.046Q69.41199999999999 -33.448 69.41199999999999 -40.995999999999995Q69.41199999999999 -48.544 66.452 -53.946Q63.492 -59.348 58.459999999999994 -62.233999999999995Q53.428 -65.11999999999999 47.656 -65.11999999999999ZM173.89999999999998 -19.683999999999997H132.756L125.948 0.0H104.192L141.33999999999997 -103.452H165.464L202.612 0.0H180.70799999999997ZM168.276 -36.26 153.32799999999997 -79.476 138.38 -36.26Z" fill="#FFFFFF"/><rect x="304.91" y="-114.38" width="2.8" height="123.82" rx="1.4" fill="rgba(255,255,255,0.30)"/><path d="M364.142 -78.20599999999999Q369.002 -78.20599999999999 373.41200000000003 -76.09099999999998Q377.822 -73.97599999999998 380.432 -70.466V-94.13599999999998H393.212V-27.53599999999999H380.432V-34.91599999999999Q378.092 -31.225999999999992 373.86199999999997 -28.975999999999992Q369.632 -26.725999999999992 364.052 -26.725999999999992Q357.752 -26.725999999999992 352.53200000000004 -29.96599999999999Q347.312 -33.20599999999999 344.297 -39.10099999999999Q341.28200000000004 -44.995999999999995 341.28200000000004 -52.64599999999999Q341.28200000000004 -60.20599999999999 344.297 -66.05599999999998Q347.312 -71.90599999999999 352.53200000000004 -75.05599999999998Q357.752 -78.20599999999999 364.142 -78.20599999999999ZM367.29200000000003 -67.136Q363.78200000000004 -67.136 360.812 -65.42599999999999Q357.842 -63.715999999999994 355.99699999999996 -60.43099999999999Q354.152 -57.14599999999999 354.152 -52.64599999999999Q354.152 -48.14599999999999 355.99699999999996 -44.77099999999999Q357.842 -41.39599999999999 360.85699999999997 -39.59599999999999Q363.872 -37.79599999999999 367.29200000000003 -37.79599999999999Q370.802 -37.79599999999999 373.862 -39.55099999999999Q376.922 -41.30599999999999 378.722 -44.590999999999994Q380.522 -47.87599999999999 380.522 -52.465999999999994Q380.522 -57.05599999999999 378.722 -60.340999999999994Q376.922 -63.62599999999999 373.862 -65.381Q370.802 -67.136 367.29200000000003 -67.136ZM451.832 -48.68599999999999H415.382Q415.832 -43.28599999999999 419.16200000000003 -40.225999999999985Q422.492 -37.16599999999999 427.352 -37.16599999999999Q434.372 -37.16599999999999 437.342 -43.19599999999999H450.932Q448.772 -35.99599999999999 442.652 -31.36099999999999Q436.532 -26.725999999999992 427.622 -26.725999999999992Q420.422 -26.725999999999992 414.707 -29.920999999999992Q408.992 -33.11599999999999 405.797 -38.965999999999994Q402.60200000000003 -44.81599999999999 402.60200000000003 -52.465999999999994Q402.60200000000003 -60.20599999999999 405.752 -66.05599999999998Q408.902 -71.90599999999999 414.572 -75.05599999999998Q420.242 -78.20599999999999 427.622 -78.20599999999999Q434.732 -78.20599999999999 440.357 -75.14599999999999Q445.982 -72.08599999999998 449.087 -66.46099999999998Q452.192 -60.835999999999984 452.192 -53.54599999999999Q452.192 -50.84599999999999 451.832 -48.68599999999999ZM439.142 -57.14599999999999Q439.052 -62.005999999999986 435.632 -64.93099999999998Q432.212 -67.856 427.262 -67.856Q422.582 -67.856 419.387 -65.02099999999999Q416.192 -62.18599999999999 415.472 -57.14599999999999ZM483.092 -78.20599999999999Q492.36199999999997 -78.20599999999999 498.437 -73.571Q504.512 -68.93599999999999 506.582 -60.56599999999999H492.99199999999996Q491.912 -63.80599999999998 489.347 -65.65099999999998Q486.782 -67.496 483.002 -67.496Q477.602 -67.496 474.452 -63.58099999999999Q471.30199999999996 -59.66599999999998 471.30199999999996 -52.465999999999994Q471.30199999999996 -45.355999999999995 474.452 -41.44099999999999Q477.602 -37.52599999999999 483.002 -37.52599999999999Q490.652 -37.52599999999999 492.99199999999996 -44.365999999999985H506.582Q504.512 -36.26599999999999 498.392 -31.49599999999999Q492.272 -26.725999999999992 483.092 -26.725999999999992Q475.892 -26.725999999999992 470.312 -29.920999999999992Q464.73199999999997 -33.11599999999999 461.582 -38.92099999999999Q458.432 -44.725999999999985 458.432 -52.465999999999994Q458.432 -60.20599999999999 461.582 -66.011Q464.73199999999997 -71.81599999999999 470.312 -75.011Q475.892 -78.20599999999999 483.092 -78.20599999999999ZM513.002 -52.465999999999994Q513.002 -60.115999999999985 516.377 -65.96599999999998Q519.752 -71.81599999999999 525.602 -75.011Q531.452 -78.20599999999999 538.652 -78.20599999999999Q545.852 -78.20599999999999 551.702 -75.011Q557.552 -71.81599999999999 560.927 -65.96599999999998Q564.302 -60.115999999999985 564.302 -52.465999999999994Q564.302 -44.81599999999999 560.837 -38.965999999999994Q557.372 -33.11599999999999 551.477 -29.920999999999992Q545.582 -26.725999999999992 538.292 -26.725999999999992Q531.092 -26.725999999999992 525.332 -29.920999999999992Q519.572 -33.11599999999999 516.287 -38.965999999999994Q513.002 -44.81599999999999 513.002 -52.465999999999994ZM551.342 -52.465999999999994Q551.342 -59.57599999999999 547.607 -63.40099999999999Q543.872 -67.22599999999998 538.472 -67.22599999999998Q533.072 -67.22599999999998 529.427 -63.40099999999999Q525.782 -59.57599999999999 525.782 -52.465999999999994Q525.782 -45.355999999999995 529.337 -41.53099999999999Q532.892 -37.70599999999999 538.292 -37.70599999999999Q541.712 -37.70599999999999 544.727 -39.37099999999999Q547.742 -41.03599999999999 549.5419999999999 -44.365999999999985Q551.342 -47.69599999999999 551.342 -52.465999999999994ZM656.222 -56.78599999999999V-27.53599999999999H643.6220000000001V-55.07599999999999Q643.6220000000001 -60.92599999999999 640.652 -64.03099999999999Q637.682 -67.136 632.552 -67.136Q627.422 -67.136 624.407 -64.03099999999999Q621.392 -60.92599999999999 621.392 -55.07599999999999V-27.53599999999999H608.792V-55.07599999999999Q608.792 -60.92599999999999 605.8220000000001 -64.03099999999999Q602.8520000000001 -67.136 597.722 -67.136Q592.5020000000001 -67.136 589.4870000000001 -64.03099999999999Q586.472 -60.92599999999999 586.472 -55.07599999999999V-27.53599999999999H573.8720000000001V-77.39599999999999H586.472V-71.36599999999999Q588.902 -74.51599999999999 592.7270000000001 -76.31599999999999Q596.552 -78.11599999999999 601.142 -78.11599999999999Q606.9920000000001 -78.11599999999999 611.5820000000001 -75.64099999999999Q616.172 -73.16599999999998 618.692 -68.576Q621.1220000000001 -72.89599999999999 625.7570000000001 -75.50599999999999Q630.392 -78.11599999999999 635.792 -78.11599999999999Q644.972 -78.11599999999999 650.597 -72.49099999999999Q656.222 -66.86599999999999 656.222 -56.78599999999999ZM697.562 -78.20599999999999Q703.952 -78.20599999999999 709.127 -75.05599999999998Q714.302 -71.90599999999999 717.317 -66.101Q720.332 -60.29599999999999 720.332 -52.64599999999999Q720.332 -44.995999999999995 717.317 -39.10099999999999Q714.302 -33.20599999999999 709.127 -29.96599999999999Q703.952 -26.725999999999992 697.562 -26.725999999999992Q692.072 -26.725999999999992 687.887 -28.975999999999992Q683.702 -31.225999999999992 681.092 -34.64599999999999V-3.7759999999999927H668.4920000000001V-77.39599999999999H681.092V-70.19599999999998Q683.522 -73.61599999999999 687.797 -75.91099999999999Q692.072 -78.20599999999999 697.562 -78.20599999999999ZM694.2320000000001 -67.136Q690.812 -67.136 687.797 -65.381Q684.782 -63.62599999999999 682.937 -60.29599999999999Q681.092 -56.965999999999994 681.092 -52.465999999999994Q681.092 -47.965999999999994 682.937 -44.635999999999996Q684.782 -41.30599999999999 687.797 -39.55099999999999Q690.812 -37.79599999999999 694.2320000000001 -37.79599999999999Q697.7420000000001 -37.79599999999999 700.7570000000001 -39.59599999999999Q703.772 -41.39599999999999 705.617 -44.725999999999985Q707.462 -48.05599999999999 707.462 -52.64599999999999Q707.462 -57.14599999999999 705.617 -60.43099999999999Q703.772 -63.715999999999994 700.7570000000001 -65.42599999999999Q697.7420000000001 -67.136 694.2320000000001 -67.136ZM771.0620000000001 -78.20599999999999Q776.6420000000002 -78.20599999999999 780.8270000000002 -75.95599999999999Q785.0120000000002 -73.70599999999999 787.5320000000002 -70.28599999999999V-77.39599999999999H800.2220000000001V-27.53599999999999H787.5320000000002V-34.82599999999999Q785.1020000000001 -31.315999999999992 780.8270000000001 -29.020999999999994Q776.5520000000001 -26.725999999999992 770.9720000000001 -26.725999999999992Q764.6720000000001 -26.725999999999992 759.4970000000001 -29.96599999999999Q754.3220000000001 -33.20599999999999 751.3070000000001 -39.10099999999999Q748.2920000000001 -44.995999999999995 748.2920000000001 -52.64599999999999Q748.2920000000001 -60.20599999999999 751.3070000000001 -66.05599999999998Q754.3220000000001 -71.90599999999999 759.4970000000001 -75.05599999999998Q764.6720000000001 -78.20599999999999 771.0620000000001 -78.20599999999999ZM774.3020000000001 -67.136Q770.7920000000001 -67.136 767.8220000000001 -65.42599999999999Q764.8520000000001 -63.715999999999994 763.0070000000001 -60.43099999999999Q761.1620000000001 -57.14599999999999 761.1620000000001 -52.64599999999999Q761.1620000000001 -48.14599999999999 763.0070000000001 -44.77099999999999Q764.8520000000001 -41.39599999999999 767.8670000000001 -39.59599999999999Q770.8820000000001 -37.79599999999999 774.3020000000001 -37.79599999999999Q777.8120000000001 -37.79599999999999 780.8720000000001 -39.55099999999999Q783.9320000000001 -41.30599999999999 785.7320000000002 -44.590999999999994Q787.5320000000002 -47.87599999999999 787.5320000000002 -52.465999999999994Q787.5320000000002 -57.05599999999999 785.7320000000002 -60.340999999999994Q783.9320000000001 -63.62599999999999 780.8720000000001 -65.381Q777.8120000000001 -67.136 774.3020000000001 -67.136ZM834.272 -78.20599999999999Q843.542 -78.20599999999999 849.617 -73.571Q855.692 -68.93599999999999 857.7620000000001 -60.56599999999999H844.172Q843.0920000000001 -63.80599999999998 840.527 -65.65099999999998Q837.9620000000001 -67.496 834.182 -67.496Q828.782 -67.496 825.6320000000001 -63.58099999999999Q822.4820000000001 -59.66599999999998 822.4820000000001 -52.465999999999994Q822.4820000000001 -45.355999999999995 825.6320000000001 -41.44099999999999Q828.782 -37.52599999999999 834.182 -37.52599999999999Q841.8320000000001 -37.52599999999999 844.172 -44.365999999999985H857.7620000000001Q855.692 -36.26599999999999 849.572 -31.49599999999999Q843.452 -26.725999999999992 834.272 -26.725999999999992Q827.072 -26.725999999999992 821.492 -29.920999999999992Q815.912 -33.11599999999999 812.7620000000001 -38.92099999999999Q809.6120000000001 -44.725999999999985 809.6120000000001 -52.465999999999994Q809.6120000000001 -60.20599999999999 812.7620000000001 -66.011Q815.912 -71.81599999999999 821.492 -75.011Q827.072 -78.20599999999999 834.272 -78.20599999999999ZM886.8620000000001 -78.20599999999999Q892.4420000000001 -78.20599999999999 896.6270000000002 -75.95599999999999Q900.8120000000001 -73.70599999999999 903.3320000000001 -70.28599999999999V-77.39599999999999H916.022V-27.53599999999999H903.3320000000001V-34.82599999999999Q900.902 -31.315999999999992 896.6270000000001 -29.020999999999994Q892.3520000000001 -26.725999999999992 886.772 -26.725999999999992Q880.4720000000001 -26.725999999999992 875.297 -29.96599999999999Q870.1220000000001 -33.20599999999999 867.1070000000001 -39.10099999999999Q864.0920000000001 -44.995999999999995 864.0920000000001 -52.64599999999999Q864.0920000000001 -60.20599999999999 867.1070000000001 -66.05599999999998Q870.1220000000001 -71.90599999999999 875.297 -75.05599999999998Q880.4720000000001 -78.20599999999999 886.8620000000001 -78.20599999999999ZM890.1020000000001 -67.136Q886.5920000000001 -67.136 883.6220000000001 -65.42599999999999Q880.652 -63.715999999999994 878.807 -60.43099999999999Q876.9620000000001 -57.14599999999999 876.9620000000001 -52.64599999999999Q876.9620000000001 -48.14599999999999 878.807 -44.77099999999999Q880.652 -41.39599999999999 883.667 -39.59599999999999Q886.682 -37.79599999999999 890.1020000000001 -37.79599999999999Q893.6120000000001 -37.79599999999999 896.672 -39.55099999999999Q899.7320000000001 -41.30599999999999 901.5320000000002 -44.590999999999994Q903.3320000000001 -47.87599999999999 903.3320000000001 -52.465999999999994Q903.3320000000001 -57.05599999999999 901.5320000000002 -60.340999999999994Q899.7320000000001 -63.62599999999999 896.672 -65.381Q893.6120000000001 -67.136 890.1020000000001 -67.136ZM948.272 -78.20599999999999Q953.1320000000001 -78.20599999999999 957.542 -76.09099999999998Q961.952 -73.97599999999998 964.562 -70.466V-94.13599999999998H977.342V-27.53599999999999H964.562V-34.91599999999999Q962.222 -31.225999999999992 957.992 -28.975999999999992Q953.7620000000001 -26.725999999999992 948.182 -26.725999999999992Q941.8820000000001 -26.725999999999992 936.662 -29.96599999999999Q931.442 -33.20599999999999 928.427 -39.10099999999999Q925.412 -44.995999999999995 925.412 -52.64599999999999Q925.412 -60.20599999999999 928.427 -66.05599999999998Q931.442 -71.90599999999999 936.662 -75.05599999999998Q941.8820000000001 -78.20599999999999 948.272 -78.20599999999999ZM951.422 -67.136Q947.912 -67.136 944.942 -65.42599999999999Q941.972 -63.715999999999994 940.127 -60.43099999999999Q938.282 -57.14599999999999 938.282 -52.64599999999999Q938.282 -48.14599999999999 940.127 -44.77099999999999Q941.972 -41.39599999999999 944.987 -39.59599999999999Q948.002 -37.79599999999999 951.422 -37.79599999999999Q954.932 -37.79599999999999 957.992 -39.55099999999999Q961.052 -41.30599999999999 962.8520000000001 -44.590999999999994Q964.652 -47.87599999999999 964.652 -52.465999999999994Q964.652 -57.05599999999999 962.8520000000001 -60.340999999999994Q961.052 -63.62599999999999 957.992 -65.381Q954.932 -67.136 951.422 -67.136ZM1035.962 -48.68599999999999H999.512Q999.962 -43.28599999999999 1003.2919999999999 -40.225999999999985Q1006.622 -37.16599999999999 1011.482 -37.16599999999999Q1018.502 -37.16599999999999 1021.472 -43.19599999999999H1035.062Q1032.902 -35.99599999999999 1026.782 -31.36099999999999Q1020.6619999999999 -26.725999999999992 1011.752 -26.725999999999992Q1004.5519999999999 -26.725999999999992 998.837 -29.920999999999992Q993.122 -33.11599999999999 989.9269999999999 -38.965999999999994Q986.732 -44.81599999999999 986.732 -52.465999999999994Q986.732 -60.20599999999999 989.882 -66.05599999999998Q993.0319999999999 -71.90599999999999 998.702 -75.05599999999998Q1004.372 -78.20599999999999 1011.752 -78.20599999999999Q1018.862 -78.20599999999999 1024.4869999999999 -75.14599999999999Q1030.1119999999999 -72.08599999999998 1033.2169999999999 -66.46099999999998Q1036.322 -60.835999999999984 1036.322 -53.54599999999999Q1036.322 -50.84599999999999 1035.962 -48.68599999999999ZM1023.2719999999999 -57.14599999999999Q1023.1819999999999 -62.005999999999986 1019.762 -64.93099999999998Q1016.342 -67.856 1011.3919999999999 -67.856Q1006.712 -67.856 1003.5169999999999 -65.02099999999999Q1000.3219999999999 -62.18599999999999 999.602 -57.14599999999999ZM1128.1519999999998 -56.78599999999999V-27.53599999999999H1115.552V-55.07599999999999Q1115.552 -60.92599999999999 1112.5819999999999 -64.03099999999999Q1109.6119999999999 -67.136 1104.482 -67.136Q1099.3519999999999 -67.136 1096.337 -64.03099999999999Q1093.322 -60.92599999999999 1093.322 -55.07599999999999V-27.53599999999999H1080.7219999999998V-55.07599999999999Q1080.7219999999998 -60.92599999999999 1077.752 -64.03099999999999Q1074.782 -67.136 1069.6519999999998 -67.136Q1064.4319999999998 -67.136 1061.417 -64.03099999999999Q1058.4019999999998 -60.92599999999999 1058.4019999999998 -55.07599999999999V-27.53599999999999H1045.802V-77.39599999999999H1058.4019999999998V-71.36599999999999Q1060.8319999999999 -74.51599999999999 1064.657 -76.31599999999999Q1068.482 -78.11599999999999 1073.072 -78.11599999999999Q1078.9219999999998 -78.11599999999999 1083.5119999999997 -75.64099999999999Q1088.1019999999999 -73.16599999999998 1090.6219999999998 -68.576Q1093.052 -72.89599999999999 1097.687 -75.50599999999999Q1102.322 -78.11599999999999 1107.7219999999998 -78.11599999999999Q1116.9019999999998 -78.11599999999999 1122.5269999999998 -72.49099999999999Q1128.1519999999998 -66.86599999999999 1128.1519999999998 -56.78599999999999ZM1188.1219999999998 -77.39599999999999 1157.2519999999997 -3.9559999999999924H1143.8419999999999L1154.6419999999998 -28.795999999999992L1134.6619999999998 -77.39599999999999H1148.7919999999997L1161.6619999999998 -42.56599999999999L1174.7119999999998 -77.39599999999999Z" fill="#FFFFFF"/></svg><path transform="translate(298.1,428.1)" d="M4.914 -2.392H11.024V0.0H1.95V-18.07H4.914ZM21.958 -15.677999999999999V-10.373999999999999H28.197999999999997V-7.9559999999999995H21.958V-2.4179999999999997H28.977999999999994V0.0H18.993999999999996V-18.096H28.977999999999994V-15.677999999999999ZM49.01199999999999 -3.6919999999999997H41.44599999999999L40.145999999999994 0.0H37.05199999999999L43.52599999999999 -18.096H46.95799999999999L53.43199999999999 0.0H50.31199999999999ZM48.17999999999999 -6.109999999999999 45.24199999999999 -14.508 42.27799999999999 -6.109999999999999ZM71.12599999999999 0.0 66.966 -7.228H64.704V0.0H61.739999999999995V-18.07H67.97999999999999Q70.05999999999999 -18.07 71.50299999999999 -17.342Q72.946 -16.614 73.661 -15.392Q74.37599999999999 -14.17 74.37599999999999 -12.661999999999999Q74.37599999999999 -10.894 73.34899999999999 -9.451Q72.32199999999999 -8.008 70.19 -7.4879999999999995L74.66199999999999 0.0ZM64.704 -9.594H67.97999999999999Q69.64399999999999 -9.594 70.48899999999999 -10.425999999999998Q71.33399999999999 -11.258 71.33399999999999 -12.661999999999999Q71.33399999999999 -14.065999999999999 70.50199999999998 -14.858999999999998Q69.66999999999999 -15.652 67.97999999999999 -15.652H64.704ZM98.518 0.0H95.55399999999999L86.636 -13.494V0.0H83.672V-18.096H86.636L95.55399999999999 -4.628V-18.096H98.518ZM107.216 -1.716Q107.216 -2.522 107.762 -3.0679999999999996Q108.30799999999999 -3.614 109.11399999999999 -3.614Q109.89399999999999 -3.614 110.44 -3.0679999999999996Q110.98599999999999 -2.522 110.98599999999999 -1.716Q110.98599999999999 -0.9099999999999999 110.44 -0.364Q109.89399999999999 0.182 109.11399999999999 0.182Q108.30799999999999 0.182 107.762 -0.364Q107.216 -0.9099999999999999 107.216 -1.716ZM159.7 -8.969999999999999Q159.7 -6.2139999999999995 158.517 -4.186Q157.334 -2.158 155.163 -1.079Q152.992 0.0 150.106 0.0H144.20399999999998V-18.07H150.106Q152.992 -18.07 155.163 -16.965Q157.334 -15.86 158.517 -13.793Q159.7 -11.725999999999999 159.7 -8.969999999999999ZM156.658 -8.969999999999999Q156.658 -12.116 154.968 -13.884Q153.278 -15.652 150.106 -15.652H147.16799999999998V-2.4179999999999997H150.106Q153.278 -2.4179999999999997 154.968 -4.1339999999999995Q156.658 -5.85 156.658 -8.969999999999999ZM171.10199999999998 -15.677999999999999V-10.373999999999999H177.34199999999998V-7.9559999999999995H171.10199999999998V-2.4179999999999997H178.12199999999999V0.0H168.13799999999998V-18.096H178.12199999999999V-15.677999999999999ZM195.504 -18.304Q198.39 -18.304 200.63899999999998 -16.887Q202.88799999999998 -15.469999999999999 203.902 -12.87H200.33999999999997Q199.63799999999998 -14.299999999999999 198.39 -15.001999999999999Q197.142 -15.703999999999999 195.504 -15.703999999999999Q193.70999999999998 -15.703999999999999 192.30599999999998 -14.898Q190.902 -14.091999999999999 190.10899999999998 -12.584Q189.31599999999997 -11.075999999999999 189.31599999999997 -9.074Q189.31599999999997 -7.072 190.10899999999998 -5.564Q190.902 -4.056 192.30599999999998 -3.237Q193.70999999999998 -2.4179999999999997 195.504 -2.4179999999999997Q197.142 -2.4179999999999997 198.39 -3.1199999999999997Q199.63799999999998 -3.8219999999999996 200.33999999999997 -5.252H203.902Q202.88799999999998 -2.6519999999999997 200.63899999999998 -1.2479999999999998Q198.39 0.156 195.504 0.156Q192.956 0.156 190.84999999999997 -1.027Q188.74399999999997 -2.21 187.50899999999996 -4.316Q186.27399999999997 -6.422 186.27399999999997 -9.074Q186.27399999999997 -11.725999999999999 187.50899999999996 -13.831999999999999Q188.74399999999997 -15.937999999999999 190.86299999999997 -17.121Q192.98199999999997 -18.304 195.504 -18.304ZM211.87199999999996 -9.074Q211.87199999999996 -11.725999999999999 213.10699999999997 -13.831999999999999Q214.34199999999996 -15.937999999999999 216.46099999999996 -17.121Q218.57999999999996 -18.304 221.10199999999998 -18.304Q223.64999999999998 -18.304 225.76899999999998 -17.121Q227.88799999999998 -15.937999999999999 229.10999999999996 -13.831999999999999Q230.33199999999997 -11.725999999999999 230.33199999999997 -9.074Q230.33199999999997 -6.422 229.10999999999996 -4.303Q227.88799999999998 -2.1839999999999997 225.76899999999998 -1.001Q223.64999999999998 0.182 221.10199999999998 0.182Q218.57999999999996 0.182 216.46099999999996 -1.001Q214.34199999999996 -2.1839999999999997 213.10699999999997 -4.303Q211.87199999999996 -6.422 211.87199999999996 -9.074ZM227.28999999999996 -9.074Q227.28999999999996 -11.075999999999999 226.49699999999996 -12.584Q225.70399999999998 -14.091999999999999 224.29999999999995 -14.898Q222.89599999999996 -15.703999999999999 221.10199999999998 -15.703999999999999Q219.30799999999996 -15.703999999999999 217.90399999999997 -14.898Q216.49999999999997 -14.091999999999999 215.70699999999997 -12.584Q214.91399999999996 -11.075999999999999 214.91399999999996 -9.074Q214.91399999999996 -7.072 215.70699999999997 -5.551Q216.49999999999997 -4.03 217.90399999999997 -3.2110000000000003Q219.30799999999996 -2.392 221.10199999999998 -2.392Q222.89599999999996 -2.392 224.29999999999995 -3.2110000000000003Q225.70399999999998 -4.03 226.49699999999996 -5.551Q227.28999999999996 -7.072 227.28999999999996 -9.074ZM257.77599999999995 -18.07V0.0H254.81199999999998V-12.376L249.29999999999998 0.0H247.24599999999998L241.70799999999997 -12.376V0.0H238.74399999999997V-18.07H241.94199999999998L248.28599999999997 -3.9L254.60399999999998 -18.07ZM273.416 -7.332H270.14V0.0H267.176V-18.07H273.416Q275.496 -18.07 276.93899999999996 -17.355Q278.382 -16.64 279.097 -15.418Q279.812 -14.196 279.812 -12.687999999999999Q279.812 -11.309999999999999 279.16200000000003 -10.088Q278.512 -8.866 277.082 -8.099Q275.652 -7.332 273.416 -7.332ZM276.77 -12.687999999999999Q276.77 -15.652 273.416 -15.652H270.14V-9.75H273.416Q275.106 -9.75 275.938 -10.517Q276.77 -11.283999999999999 276.77 -12.687999999999999ZM291.11 -18.07V0.0H288.146V-18.07ZM303.474 -2.392H309.584V0.0H300.51V-18.07H303.474ZM320.518 -15.677999999999999V-10.373999999999999H326.758V-7.9559999999999995H320.518V-2.4179999999999997H327.538V0.0H317.554V-18.096H327.538V-15.677999999999999ZM335.976 -1.716Q335.976 -2.522 336.522 -3.0679999999999996Q337.068 -3.614 337.874 -3.614Q338.654 -3.614 339.2 -3.0679999999999996Q339.746 -2.522 339.746 -1.716Q339.746 -0.9099999999999999 339.2 -0.364Q338.654 0.182 337.874 0.182Q337.068 0.182 336.522 -0.364Q335.976 -0.9099999999999999 335.976 -1.716ZM375.902 -18.07V-6.552Q375.902 -4.498 376.981 -3.458Q378.06 -2.4179999999999997 379.98400000000004 -2.4179999999999997Q381.934 -2.4179999999999997 383.01300000000003 -3.458Q384.092 -4.498 384.092 -6.552V-18.07H387.056V-6.604Q387.056 -4.394 386.094 -2.86Q385.132 -1.3259999999999998 383.52 -0.572Q381.908 0.182 379.958 0.182Q378.00800000000004 0.182 376.409 -0.572Q374.81 -1.3259999999999998 373.874 -2.86Q372.938 -4.394 372.938 -6.604V-18.07ZM411.25 0.0H408.286L399.368 -13.494V0.0H396.404V-18.096H399.368L408.286 -4.628V-18.096H411.25ZM436.14599999999996 -8.969999999999999Q436.14599999999996 -6.2139999999999995 434.96299999999997 -4.186Q433.78 -2.158 431.609 -1.079Q429.438 0.0 426.55199999999996 0.0H420.65V-18.07H426.55199999999996Q429.438 -18.07 431.609 -16.965Q433.78 -15.86 434.96299999999997 -13.793Q436.14599999999996 -11.725999999999999 436.14599999999996 -8.969999999999999ZM433.104 -8.969999999999999Q433.104 -12.116 431.414 -13.884Q429.724 -15.652 426.55199999999996 -15.652H423.614V-2.4179999999999997H426.55199999999996Q429.724 -2.4179999999999997 431.414 -4.1339999999999995Q433.104 -5.85 433.104 -8.969999999999999ZM447.548 -15.677999999999999V-10.373999999999999H453.788V-7.9559999999999995H447.548V-2.4179999999999997H454.56800000000004V0.0H444.584V-18.096H454.56800000000004V-15.677999999999999ZM473.09400000000005 0.0 468.934 -7.228H466.672V0.0H463.708V-18.07H469.94800000000004Q472.028 -18.07 473.471 -17.342Q474.91400000000004 -16.614 475.629 -15.392Q476.34400000000005 -14.17 476.34400000000005 -12.661999999999999Q476.34400000000005 -10.894 475.317 -9.451Q474.29 -8.008 472.158 -7.4879999999999995L476.63000000000005 0.0ZM466.672 -9.594H469.94800000000004Q471.612 -9.594 472.457 -10.425999999999998Q473.302 -11.258 473.302 -12.661999999999999Q473.302 -14.065999999999999 472.47 -14.858999999999998Q471.63800000000003 -15.652 469.94800000000004 -15.652H466.672ZM485.19800000000004 -4.992H488.37000000000006Q488.47400000000005 -3.8219999999999996 489.29300000000006 -3.0679999999999996Q490.1120000000001 -2.314 491.59400000000005 -2.314Q493.12800000000004 -2.314 493.98600000000005 -3.0549999999999997Q494.84400000000005 -3.796 494.84400000000005 -4.966Q494.84400000000005 -5.8759999999999994 494.31100000000004 -6.4479999999999995Q493.7780000000001 -7.02 492.98500000000007 -7.331999999999999Q492.19200000000006 -7.643999999999999 490.78800000000007 -8.008Q489.02000000000004 -8.475999999999999 487.9150000000001 -8.956999999999999Q486.81000000000006 -9.437999999999999 486.0300000000001 -10.451999999999998Q485.25000000000006 -11.466 485.25000000000006 -13.155999999999999Q485.25000000000006 -14.716 486.0300000000001 -15.886Q486.81000000000006 -17.056 488.21400000000006 -17.68Q489.61800000000005 -18.304 491.46400000000006 -18.304Q494.09000000000003 -18.304 495.76700000000005 -16.991Q497.4440000000001 -15.677999999999999 497.62600000000003 -13.389999999999999H494.3500000000001Q494.27200000000005 -14.378 493.41400000000004 -15.08Q492.55600000000004 -15.782 491.15200000000004 -15.782Q489.87800000000004 -15.782 489.07200000000006 -15.132Q488.2660000000001 -14.482 488.2660000000001 -13.26Q488.2660000000001 -12.427999999999999 488.773 -11.895Q489.28000000000003 -11.362 490.06000000000006 -11.05Q490.84000000000003 -10.738 492.19200000000006 -10.373999999999999Q493.98600000000005 -9.879999999999999 495.1170000000001 -9.386Q496.24800000000005 -8.892 497.04100000000005 -7.865Q497.83400000000006 -6.838 497.83400000000006 -5.122Q497.83400000000006 -3.7439999999999998 497.0930000000001 -2.522Q496.35200000000003 -1.3 494.93500000000006 -0.559Q493.51800000000003 0.182 491.59400000000005 0.182Q489.77400000000006 0.182 488.3180000000001 -0.45499999999999996Q486.8620000000001 -1.0919999999999999 486.0300000000001 -2.262Q485.19800000000004 -3.432 485.19800000000004 -4.992ZM518.518 -18.07V-15.652H513.7080000000001V0.0H510.7440000000001V-15.652H505.9080000000001V-18.07ZM537.9020000000002 -3.6919999999999997H530.3360000000001L529.0360000000001 0.0H525.9420000000001L532.416 -18.096H535.8480000000001L542.3220000000001 0.0H539.2020000000001ZM537.07 -6.109999999999999 534.1320000000001 -14.508 531.1680000000001 -6.109999999999999ZM565.4760000000001 0.0H562.5120000000001L553.594 -13.494V0.0H550.6300000000001V-18.096H553.594L562.5120000000001 -4.628V-18.096H565.4760000000001ZM590.3720000000001 -8.969999999999999Q590.3720000000001 -6.2139999999999995 589.1890000000001 -4.186Q588.0060000000001 -2.158 585.835 -1.079Q583.664 0.0 580.778 0.0H574.8760000000001V-18.07H580.778Q583.664 -18.07 585.835 -16.965Q588.0060000000001 -15.86 589.1890000000001 -13.793Q590.3720000000001 -11.725999999999999 590.3720000000001 -8.969999999999999ZM587.33 -8.969999999999999Q587.33 -12.116 585.6400000000001 -13.884Q583.95 -15.652 580.778 -15.652H577.84V-2.4179999999999997H580.778Q583.95 -2.4179999999999997 585.6400000000001 -4.1339999999999995Q587.33 -5.85 587.33 -8.969999999999999ZM598.1080000000001 -1.716Q598.1080000000001 -2.522 598.654 -3.0679999999999996Q599.2 -3.614 600.006 -3.614Q600.7860000000001 -3.614 601.3320000000001 -3.0679999999999996Q601.878 -2.522 601.878 -1.716Q601.878 -0.9099999999999999 601.3320000000001 -0.364Q600.7860000000001 0.182 600.006 0.182Q599.2 0.182 598.654 -0.364Q598.1080000000001 -0.9099999999999999 598.1080000000001 -1.716Z" fill="#A78BFA" opacity="0.92"/></svg>